<?xml version="1.0" standalone="no"?>
<!DOCTYPE svg PUBLIC "-//W3C//DTD SVG 20010904//EN"
 "http://www.w3.org/TR/2001/REC-SVG-20010904/DTD/svg10.dtd">
<svg version="1.0" xmlns="http://www.w3.org/2000/svg"
 width="879.000000pt" height="279.000000pt" viewBox="0 0 879.000000 279.000000"
 preserveAspectRatio="xMidYMid meet">
<metadata>
Created by potrace 1.15, written by Peter Selinger 2001-2017
</metadata>
<g transform="translate(0.000000,279.000000) scale(0.100000,-0.100000)"
fill="#000000" stroke="none">
<path d="M5360 1470 l0 -560 75 0 75 0 0 560 0 560 -75 0 -75 0 0 -560z"/>
<path d="M1870 1460 l0 -550 233 0 c253 0 300 7 405 58 66 31 157 118 195 182
54 94 70 165 71 300 1 102 -3 138 -21 195 -42 134 -135 245 -253 305 -98 50
-168 60 -412 60 l-218 0 0 -550z m486 385 c108 -32 181 -101 225 -214 30 -76
33 -259 6 -337 -37 -107 -104 -177 -207 -219 -34 -14 -81 -19 -197 -23 l-153
-4 0 406 0 406 138 0 c92 0 155 -5 188 -15z"/>
<path d="M3137 1656 c-103 -43 -153 -93 -204 -201 -26 -55 -28 -70 -28 -175 0
-108 2 -119 31 -180 108 -226 400 -288 583 -124 44 40 91 112 91 141 0 6 -28
21 -62 34 -59 22 -62 22 -72 5 -54 -91 -91 -120 -163 -129 -123 -16 -222 53
-248 170 l-7 33 279 2 278 3 3 45 c8 110 -41 242 -114 309 -64 60 -122 82
-224 88 -74 3 -93 1 -143 -21z m219 -135 c44 -20 81 -70 94 -127 l8 -34 -198
0 -199 0 8 28 c12 41 36 85 58 104 53 48 157 62 229 29z"/>
<path d="M4723 1666 c-222 -72 -325 -355 -213 -583 81 -165 289 -243 465 -175
63 24 130 78 163 130 53 84 52 87 -23 112 -37 12 -67 20 -69 19 -1 -2 -14 -25
-29 -50 -31 -55 -59 -75 -123 -89 -65 -15 -139 2 -188 42 -40 33 -75 96 -76
135 l0 23 273 2 272 3 3 69 c6 148 -62 274 -181 335 -58 30 -79 35 -150 38
-50 2 -98 -2 -124 -11z m178 -136 c42 -12 82 -51 103 -102 30 -71 38 -68 -179
-68 -127 0 -195 4 -195 10 0 21 31 85 53 109 48 52 137 73 218 51z"/>
<path d="M5947 1661 c-170 -56 -264 -205 -255 -406 5 -118 41 -199 123 -274
75 -68 145 -94 255 -94 112 0 180 26 258 98 70 64 108 138 122 233 26 186 -56
350 -216 428 -74 36 -203 43 -287 15z m241 -158 c68 -42 102 -112 102 -210 0
-92 -14 -141 -52 -188 -43 -52 -95 -75 -168 -75 -92 0 -154 38 -195 120 -24
46 -31 166 -15 226 16 57 82 130 135 150 58 21 137 12 193 -23z"/>
<path d="M6965 1669 c-59 -7 -101 -27 -150 -70 l-35 -31 0 46 0 46 -75 0 -75
0 0 -520 0 -520 75 0 75 0 0 187 0 187 33 -31 c76 -75 215 -96 334 -52 151 57
241 242 213 441 -32 220 -187 345 -395 317z m130 -162 c79 -45 123 -162 104
-281 -12 -70 -27 -102 -70 -144 -93 -91 -256 -60 -316 60 -65 131 -24 310 84
367 54 29 146 28 198 -2z"/>
<path d="M7750 1671 c-84 -26 -162 -86 -208 -159 -50 -79 -65 -141 -60 -250 3
-83 8 -107 35 -164 55 -116 146 -186 275 -208 108 -19 224 12 302 80 36 32 96
123 96 146 0 11 -103 54 -129 54 -6 0 -11 -6 -11 -13 0 -24 -58 -96 -92 -113
-48 -25 -152 -23 -203 3 -50 26 -68 46 -94 103 -39 85 -57 79 257 82 l277 3 3
42 c8 111 -47 254 -125 323 -74 65 -230 99 -323 71z m186 -152 c48 -23 82 -69
91 -124 l6 -35 -196 0 -195 0 10 38 c32 118 170 177 284 121z"/>
<path d="M8670 1661 c-46 -14 -87 -40 -114 -71 l-26 -32 0 51 0 51 -80 0 -80
0 0 -375 0 -375 80 0 80 0 0 213 c0 228 6 269 47 318 36 42 80 59 153 59 l60
0 0 85 0 85 -47 -1 c-27 0 -59 -4 -73 -8z"/>
<path d="M3672 1643 c3 -10 70 -179 149 -375 l144 -358 80 0 80 0 142 358 c78
196 145 365 149 375 6 15 -2 17 -78 17 l-84 0 -104 -280 -104 -280 -102 277
-102 278 -87 3 c-80 3 -87 1 -83 -15z"/>
</g>
</svg>
